<svg xmlns="http://www.w3.org/2000/svg" viewBox="0 0 48 48" fill="none">
  <!-- Leaf shape — transparent background version -->
  <path d="M24 6C14 10 8 18 8 28c0 8 6 14 16 14 0-8 0-18 0-26 0-4 0-8 0-10z" fill="#4caf50"/>
  <path d="M24 6c10 4 16 12 16 22 0 8-6 14-16 14 0-8 0-18 0-26 0-4 0-8 0-10z" fill="#66bb6a"/>
  <!-- Leaf vein -->
  <path d="M24 8v32" stroke="#2e7d32" stroke-width="1.5" stroke-linecap="round"/>
  <path d="M24 16c-4 2-7 5-9 9" stroke="#2e7d32" stroke-width="1" stroke-linecap="round" fill="none"/>
  <path d="M24 16c4 2 7 5 9 9" stroke="#2e7d32" stroke-width="1" stroke-linecap="round" fill="none"/>
  <path d="M24 24c-3 1-5 3-7 6" stroke="#2e7d32" stroke-width="1" stroke-linecap="round" fill="none"/>
  <path d="M24 24c3 1 5 3 7 6" stroke="#2e7d32" stroke-width="1" stroke-linecap="round" fill="none"/>
</svg>
